<svg xmlns="http://www.w3.org/2000/svg" width="51" height="51" viewBox="0 0 51 51">
  <g id="about_d" transform="translate(-92 -301)">
    <g id="Ellipse_112" data-name="Ellipse 112" transform="translate(92 301)" fill="none" stroke="#000" stroke-width="2">
      <circle cx="25.5" cy="25.5" r="25.5" stroke="none"/>
      <circle cx="25.5" cy="25.5" r="24.5" fill="none"/>
    </g>
    <path id="Subtraction_3" data-name="Subtraction 3" d="M27.994,18H.006C0,17.812,0,17.648,0,17.5A19.8,19.8,0,0,1,4.1,5.126,12.676,12.676,0,0,1,14,0a12.676,12.676,0,0,1,9.9,5.126A19.8,19.8,0,0,1,28,17.5c0,.164,0,.332-.006.5Z" transform="translate(104 320.412)" fill="#0c0c0c"/>
    <circle id="Ellipse_113" data-name="Ellipse 113" cx="8.5" cy="8.5" r="8.5" transform="translate(109.486 309.743)" fill="#343434"/>
  </g>
</svg>
