<svg xmlns="http://www.w3.org/2000/svg" width="53" height="53" viewBox="0 0 53 53">
  <g id="blog_l" transform="translate(-92 -126)">
    <g id="blog_d" transform="translate(93 127)">
      <circle id="Ellipse_112" data-name="Ellipse 112" cx="25.5" cy="25.5" r="25.5" transform="translate(0)" fill="none" stroke="#fff" stroke-width="2"/>
      <g id="Group_14" data-name="Group 14" transform="translate(9.974 9.679)">
        <circle id="Ellipse_113" data-name="Ellipse 113" cx="14.959" cy="14.959" r="14.959" transform="translate(0.587 0.587)" fill="none" stroke="#fff" stroke-linecap="round" stroke-width="4"/>
        <path id="Path_233" data-name="Path 233" d="M527.558,618.8A15.545,15.545,0,1,1,543.1,603.257h0A15.562,15.562,0,0,1,527.558,618.8Zm0-29.917a14.372,14.372,0,1,0,14.372,14.372h0a14.388,14.388,0,0,0-14.372-14.372Z" transform="translate(-512.012 -587.712)" fill="none" stroke="#fff" stroke-width="1"/>
      </g>
      <g id="Group_15" data-name="Group 15" transform="translate(15.298 19.103)">
        <path id="Path_234" data-name="Path 234" d="M537.983,611.984a.771.771,0,0,1-.545-.226l-8.73-8.731-8.678,8.678a.771.771,0,0,1-1.091-1.091l9.224-9.224a.771.771,0,0,1,1.09,0h0l9.275,9.276a.771.771,0,0,1-.545,1.316Z" transform="translate(-518.713 -601.165)" fill="#fff"/>
        <path id="Path_235" data-name="Path 235" d="M528.8,616.8a.771.771,0,0,1-.545-.226l-9.224-9.224a.771.771,0,0,1,1.091-1.09l8.678,8.678,8.678-8.678a.771.771,0,1,1,1.091,1.09l-9.224,9.224A.769.769,0,0,1,528.8,616.8Z" transform="translate(-518.758 -603.432)" fill="#fff"/>
      </g>
    </g>
  </g>
</svg>
