<svg xmlns="http://www.w3.org/2000/svg" xmlns:xlink="http://www.w3.org/1999/xlink" width="1920" height="1080" viewBox="0 0 1920 1080">
  <!-- <defs>
    <clipPath id="clip-contactme">
      <rect width="1920" height="1080"/>
    </clipPath>
  </defs> -->
  <g id="contactme" >
    <g id="Group_7" data-name="Group 7" transform="translate(477.992 -28.994)">
      <ellipse id="Ellipse_60" data-name="Ellipse 60" cx="290.75" cy="29.32" rx="290.75" ry="29.32" transform="translate(144.7 772.97)" fill="#6c63ff" opacity="0.1"/>
      <path id="Path_67" data-name="Path 67" d="M252,833.31S239.1,760.22,191.22,724c-20.09-15.2-34.79-35.87-41.21-59.41a179.251,179.251,0,0,1-5.78-34.1" transform="translate(-82.53 -34.2)" fill="none" stroke="#535461" stroke-miterlimit="10" stroke-width="2"/>
      <path id="Path_68" data-name="Path 68" d="M114.21,607.49c4,7.83,30.73,23.68,30.73,23.68s3.36-29.61-.67-37.45-14-11.11-22.32-7.31S110.18,599.65,114.21,607.49Z" transform="translate(-82.53 -34.2)" fill="#6c63ff"/>
      <path id="Path_69" data-name="Path 69" d="M111.66,662.28c7.9,4.51,39.44,4.11,39.44,4.11S136.87,639.81,129,635.3s-18.16-2.13-22.94,5.32A15.268,15.268,0,0,0,111.66,662.28Z" transform="translate(-82.53 -34.2)" fill="#6c63ff"/>
      <path id="Path_70" data-name="Path 70" d="M150.87,736c9.22.13,36.23-15.25,36.23-15.25s-26.49-16.16-35.72-16.3-16.82,6.82-17,15.53S141.64,735.84,150.87,736Z" transform="translate(-82.53 -34.2)" fill="#6c63ff"/>
      <path id="Path_71" data-name="Path 71" d="M193.83,785.43c9.06,1.61,38.44-9.25,38.44-9.25S209.05,756,200,754.42s-17.8,4-19.5,12.6S184.76,783.83,193.83,785.43Z" transform="translate(-82.53 -34.2)" fill="#6c63ff"/>
      <path id="Path_72" data-name="Path 72" d="M183.44,653.45c-3.15,8.19-28,26.55-28,26.55s-6.58-29.12-3.43-37.31,12.74-12.42,21.41-9.45S186.59,645.27,183.44,653.45Z" transform="translate(-82.53 -34.2)" fill="#6c63ff"/>
      <path id="Path_73" data-name="Path 73" d="M232.91,711.89c-5.6,6.93-35.12,17.43-35.12,17.43s3-29.65,8.56-36.57a17.38,17.38,0,0,1,23.42-3,15.2,15.2,0,0,1,3.14,22.14Z" transform="translate(-82.53 -34.2)" fill="#6c63ff"/>
      <path id="Path_74" data-name="Path 74" d="M272.73,774.92c-4.28,7.72-31.49,22.78-31.49,22.78s-2.39-29.69,1.89-37.41,14.37-10.7,22.55-6.66S277,767.2,272.73,774.92Z" transform="translate(-82.53 -34.2)" fill="#6c63ff"/>
      <path id="Path_75" data-name="Path 75" d="M114.21,607.49c4,7.83,30.73,23.68,30.73,23.68s3.36-29.61-.67-37.45-14-11.11-22.32-7.31S110.18,599.65,114.21,607.49Z" transform="translate(-82.53 -34.2)" opacity="0.25"/>
      <path id="Path_76" data-name="Path 76" d="M111.66,662.28c7.9,4.51,39.44,4.11,39.44,4.11S136.87,639.81,129,635.3s-18.16-2.13-22.94,5.32A15.268,15.268,0,0,0,111.66,662.28Z" transform="translate(-82.53 -34.2)" opacity="0.25"/>
      <path id="Path_77" data-name="Path 77" d="M150.87,736c9.22.13,36.23-15.25,36.23-15.25s-26.49-16.16-35.72-16.3-16.82,6.82-17,15.53S141.64,735.84,150.87,736Z" transform="translate(-82.53 -34.2)" opacity="0.25"/>
      <path id="Path_78" data-name="Path 78" d="M193.83,785.43c9.06,1.61,38.44-9.25,38.44-9.25S209.05,756,200,754.42s-17.8,4-19.5,12.6S184.76,783.83,193.83,785.43Z" transform="translate(-82.53 -34.2)" opacity="0.25"/>
      <path id="Path_79" data-name="Path 79" d="M183.44,653.45c-3.15,8.19-28,26.55-28,26.55s-6.58-29.12-3.43-37.31,12.74-12.42,21.41-9.45S186.59,645.27,183.44,653.45Z" transform="translate(-82.53 -34.2)" opacity="0.25"/>
      <path id="Path_80" data-name="Path 80" d="M232.91,711.89c-5.6,6.93-35.12,17.43-35.12,17.43s3-29.65,8.56-36.57a17.38,17.38,0,0,1,23.42-3,15.2,15.2,0,0,1,3.14,22.14Z" transform="translate(-82.53 -34.2)" opacity="0.25"/>
      <path id="Path_81" data-name="Path 81" d="M272.73,774.92c-4.28,7.72-31.49,22.78-31.49,22.78s-2.39-29.69,1.89-37.41,14.37-10.7,22.55-6.66S277,767.2,272.73,774.92Z" transform="translate(-82.53 -34.2)" opacity="0.25"/>
      <path id="Path_82" data-name="Path 82" d="M250.38,831.39s19.57-71.76-8.65-123.2c-11.84-21.58-16.41-46.1-12.17-70.08a180,180,0,0,1,9.35-33.38" transform="translate(-82.53 -34.2)" fill="none" stroke="#535461" stroke-miterlimit="10" stroke-width="2"/>
      <path id="Path_83" data-name="Path 83" d="M221.33,572.22c.32,8.7,17.93,33.41,17.93,33.41s15.78-25.79,15.46-34.5-8.05-15.52-17.27-15.22S221,563.51,221.33,572.22Z" transform="translate(-82.53 -34.2)" fill="#6c63ff"/>
      <path id="Path_84" data-name="Path 84" d="M195.49,621.34c5.28,7.14,34.28,18.84,34.28,18.84s-1.6-29.74-6.88-36.89a17.35,17.35,0,0,0-23.26-3.91,15.23,15.23,0,0,0-4.14,21.96Z" transform="translate(-82.53 -34.2)" fill="#6c63ff"/>
      <path id="Path_85" data-name="Path 85" d="M199.69,703.71c8.38,3.65,39.68-.07,39.68-.07s-17.29-24.92-25.67-28.57-18.3-.2-22.17,7.71S191.32,700.06,199.69,703.71Z" transform="translate(-82.53 -34.2)" fill="#6c63ff"/>
      <path id="Path_86" data-name="Path 86" d="M217.74,765.36c7.61,4.94,39.12,6.25,39.12,6.25s-12.58-27.31-20.18-32.24a17.33,17.33,0,0,0-23.23,4,15.23,15.23,0,0,0,4.29,21.99Z" transform="translate(-82.53 -34.2)" fill="#6c63ff"/>
      <path id="Path_87" data-name="Path 87" d="M264.9,640.73c-6.4,6.28-37,13.57-37,13.57s6.49-29.15,12.88-35.43a17.42,17.42,0,0,1,23.63-.44,15.16,15.16,0,0,1,.49,22.3Z" transform="translate(-82.53 -34.2)" fill="#6c63ff"/>
      <path id="Path_88" data-name="Path 88" d="M285,713.08c-8.09,4.19-39.58,2.5-39.58,2.5s15.43-26,23.52-30.16,18.25-1.39,22.68,6.25S293.13,708.89,285,713.08Z" transform="translate(-82.53 -34.2)" fill="#6c63ff"/>
      <path id="Path_89" data-name="Path 89" d="M294.39,785.94c-7.23,5.42-38.57,8.78-38.57,8.78s10.56-28.07,17.79-33.49a17.38,17.38,0,0,1,23.47,2.55,15.19,15.19,0,0,1-2.69,22.16Z" transform="translate(-82.53 -34.2)" fill="#6c63ff"/>
      <circle id="Ellipse_61" data-name="Ellipse 61" cx="0.36" cy="0.36" r="0.36" transform="translate(688.94 335.71)" fill="#e6e8ec"/>
      <path id="Path_153" data-name="Path 153" d="M582.08,248.59,320.57,418.25l170.66,307.8a11.91,11.91,0,0,0,7.6,5.8l154.63,37.72A11.92,11.92,0,0,0,667,763.16l76.7-159.35,84.06-112.37-199.48-236a35.35,35.35,0,0,0-46.2-6.85Z" transform="translate(-82.53 -34.2)" fill="#dcdfed"/>
      <path id="Path_154" data-name="Path 154" d="M830.42,492.77l-.74,1L780.44,559.6l-.89,1.19-33.19,44.37-65.6,136.31-1.84,3.81-9.26,19.23a11.92,11.92,0,0,1-13.56,6.41L501.47,733.18a11.89,11.89,0,0,1-7.6-5.8L479,700.61l-2.67-4.82L369,502.13l-.92-1.65-44.86-80.9,5.42-3.52,41.09-26.65.95-.62,86.53-56.14,5.46-3.54,122.05-79.19a35.34,35.34,0,0,1,46.22,6.84l91,107.7,4,4.8,66.05,78.14.36.43,33.21,39.28,4.18,4.95Z" transform="translate(-82.53 -34.2)" opacity="0.1"/>
      <path id="Path_155" data-name="Path 155" d="M789.79,446.5l-8.06,56-2.43,16.9-1.39,36-.11,2.81-7.23,188.1a11.93,11.93,0,0,1-14.51,11.17l-77.94-17.4-.84-.19L477.39,695.28l-3.67-.82L363.83,669.92l2.52-169.12.08-5.65.76-51.19.84-56.5,86.53-56.14,5.46-3.54c80.26,8.23,187,24.06,259.31,35.35l4,4.8,66,78.14Z" transform="translate(-82.53 -34.2)" opacity="0.1"/>
      <path id="Path_156" data-name="Path 156" d="M798.92,380.1l-9.49,66-8.7,60.44L778.3,523.4l-1.39,36-7.34,190.91a11.93,11.93,0,0,1-14.51,11.17l-78.78-17.59L476.39,699.28,362.83,673.92l2.6-174.77.76-51.19.89-59.88.91-61.59c18.78-.89,49.68,1.12,86.57,4.83,82.6,8.29,195.2,25.06,268.82,36.61C768.46,375,798.92,380.1,798.92,380.1Z" transform="translate(-82.53 -34.2)" fill="#6c63ff"/>
      <path id="Path_157" data-name="Path 157" d="M823,485.78l-42.27,20.73L565,612.31,366.19,448,326,414.73l-5.42,3.52,44.86,80.9-2.6,174.77L476.4,699.28l14.84,26.77a11.89,11.89,0,0,0,7.6,5.8l154.63,37.72A11.92,11.92,0,0,0,667,763.16l9.26-19.23,78.78,17.59a11.93,11.93,0,0,0,14.51-11.17l7.34-190.91,50.13-67,.14-1.69Z" transform="translate(-82.53 -34.2)" opacity="0.1"/>
      <path id="Path_158" data-name="Path 158" d="M320.57,418.25,302.74,723.58a11.92,11.92,0,0,0,9.31,12.33L785.57,841.06A11.92,11.92,0,0,0,800,830.39l27.75-338.95L565,620.31Z" transform="translate(-82.53 -34.2)" fill="#dcdfed"/>
      <path id="Path_159" data-name="Path 159" d="M306,730.57,552,578.8a18.06,18.06,0,0,1,23,3.6L795.18,839.19c.8.92,1.19.26,0,0L306,730.57C304.6,730.26,304.78,731.3,306,730.57Z" transform="translate(-82.53 -34.2)" opacity="0.1"/>
      <path id="Path_160" data-name="Path 160" d="M307.76,730.32,551.22,583.25a19.09,19.09,0,0,1,24.28,3.82L793.69,838a2.63,2.63,0,0,1-2.55,4.29L308.55,735.13a2.62,2.62,0,0,1-.79-4.81Z" transform="translate(-82.53 -34.2)" fill="#e3e5f1"/>
    </g>
  </g>
</svg>
