<svg xmlns="http://www.w3.org/2000/svg" viewBox="0 0 86.64 86.64"><defs><style>.cls-1{fill:#000a12;}.cls-2{fill:#ff4081;}.cls-3{fill:#fff;}</style></defs><g id="Layer_2" data-name="Layer 2"><g id="Layer_1-2" data-name="Layer 1"><circle class="cls-1" cx="43.32" cy="43.32" r="43.32"/><circle class="cls-2" cx="43.35" cy="42.84" r="25.11"/><path class="cls-3" d="M43.35,68.93a26.09,26.09,0,1,1,26.1-26.09A26.12,26.12,0,0,1,43.35,68.93Zm0-50.21A24.12,24.12,0,1,0,67.48,42.84,24.15,24.15,0,0,0,43.35,18.72Z"/><path d="M61,51.23A1.48,1.48,0,0,1,60,50.8L43.26,34.09,26.64,50.7a1.47,1.47,0,0,1-2.09,0,1.49,1.49,0,0,1,0-2.09L42.21,31a1.49,1.49,0,0,1,2.09,0L62.06,48.71a1.47,1.47,0,0,1,0,2.09A1.45,1.45,0,0,1,61,51.23Z"/><path d="M43.36,56.12a1.53,1.53,0,0,1-1-.43L24.65,38a1.49,1.49,0,0,1,0-2.09,1.47,1.47,0,0,1,2.09,0L43.36,52.55,60,35.94A1.48,1.48,0,0,1,62.06,38L44.4,55.69A1.48,1.48,0,0,1,43.36,56.12Z"/></g></g></svg>