<svg xmlns="http://www.w3.org/2000/svg" viewBox="0 0 88 88"><defs><style>.cls-1{fill:#fff;}.cls-2{fill:#ff4081;}</style></defs><g id="Layer_2" data-name="Layer 2"><g id="Layer_1-2" data-name="Layer 1"><circle class="cls-1" cx="44" cy="44" r="44"/><circle class="cls-2" cx="44.04" cy="43.51" r="25.5"/><path d="M44,70a26.5,26.5,0,1,1,26.5-26.5A26.52,26.52,0,0,1,44,70Zm0-51a24.5,24.5,0,1,0,24.5,24.5A24.53,24.53,0,0,0,44,19Z"/><path d="M62,52a1.49,1.49,0,0,1-1.06-.44l-17-17L27.06,51.5a1.51,1.51,0,0,1-2.12,0,1.49,1.49,0,0,1,0-2.12L42.88,31.44a1.49,1.49,0,0,1,2.12,0l18,18a1.51,1.51,0,0,1,0,2.12A1.53,1.53,0,0,1,62,52Z"/><path d="M44,57A1.5,1.5,0,0,1,43,56.56L25,38.62a1.49,1.49,0,0,1,0-2.12,1.51,1.51,0,0,1,2.12,0L44,53.38,60.92,36.5A1.5,1.5,0,0,1,63,38.62L45.1,56.56A1.5,1.5,0,0,1,44,57Z"/></g></g></svg>