<svg xmlns="http://www.w3.org/2000/svg" width="30.5" height="27.17" viewBox="0 0 30.5 27.17">
  <path id="work_b" d="M17.813,19.33a.9.9,0,0,1-.891.9H11.578a.9.9,0,0,1-.891-.9v-2.7H0v8.09a2.752,2.752,0,0,0,2.672,2.7H25.828a2.752,2.752,0,0,0,2.672-2.7v-8.09H17.813ZM25.828,7.644H21.375v-2.7A2.752,2.752,0,0,0,18.7,2.25H9.8a2.752,2.752,0,0,0-2.672,2.7v2.7H2.672A2.752,2.752,0,0,0,0,10.34v4.495H28.5V10.34A2.752,2.752,0,0,0,25.828,7.644Z" transform="translate(1 -1.25)" fill="none" stroke="#000" stroke-width="2"/>
</svg>
