<svg xmlns="http://www.w3.org/2000/svg" xmlns:xlink="http://www.w3.org/1999/xlink" width="2248" height="1388" viewBox="0 0 2248 1388">
  <defs>
    <linearGradient id="linear-gradient" x1="0.5" y1="1" x2="0.5" gradientUnits="objectBoundingBox">
      <stop offset="0" stop-color="gray" stop-opacity="0.251"/>
      <stop offset="0.54" stop-color="gray" stop-opacity="0.122"/>
      <stop offset="1" stop-color="gray" stop-opacity="0.102"/>
    </linearGradient>
    <clipPath id="clip-_404illus">
      <rect width="2248" height="1388"/>
    </clipPath>
  </defs>
  <g id="_404illus" data-name="404illus" clip-path="url(#clip-_404illus)">
    <g id="Group_23" data-name="Group 23" transform="translate(453.009 130.996)">
      <path id="Path_65" data-name="Path 65" d="M61.83,433.31C83.412,516.718,129.061,588.819,201.2,623.77c149.967,72.635,488.182,35.175,740.6-7.828,130.572-22.24,245.34-83.619,328.71-170Z" transform="translate(-47.117 50.038)" fill="#6c63ff" opacity="0.1"/>
      <path id="Path_66" data-name="Path 66" d="M1378.711,135.027h-138.5c-6.573,0-11.965-4.871-11.965-10.822s5.392-10.834,11.965-10.834h23.955c-6.585,0-11.965-4.871-11.965-10.834s5.38-10.822,11.965-10.822h-17.1c-6.585,0-11.978-4.871-11.978-10.834s5.392-10.822,11.978-10.822h72.287c-16.041-6.747-34.789-11.543-56.4-14.065-197.119-22.9-267.493-7.753-292.318,7.815A291.386,291.386,0,0,1,869.332,103.99c-121.614,22.7-349.05,50.01-555.189-8.7C211.688,66.057,135.536,115.4,89.9,197.872H1402.765c-1.715-23.967-6.846-46.108-16.264-65.479a12.636,12.636,0,0,1-7.79,2.634Z" transform="translate(-40.311 -44.29)" fill="#6860e4" opacity="0.1"/>
      <path id="Path_67" data-name="Path 67" d="M52.962,293.19a500.138,500.138,0,0,0,5.368,145.519l1215.989,40.244a515.886,515.886,0,0,0,84.489-116.569ZM533.9,397H509.958c6.585,0,11.978,4.883,11.978,10.834s-5.392,10.822-11.978,10.822h-138.5c-6.573,0-11.965-4.871-11.965-10.822S364.886,397,371.459,397h23.955c-6.585,0-11.965-4.871-11.965-10.822s5.38-10.834,11.965-10.834H378.3c-6.585,0-11.978-4.871-11.978-10.822s5.392-10.834,11.978-10.834H516.8c6.585,0,11.965,4.871,11.965,10.834s-5.38,10.822-11.965,10.822h17.1c6.585,0,11.965,4.871,11.965,10.834S540.485,397,533.9,397Z" transform="translate(-49.99 16.062)" fill="#6c63ff" opacity="0.1"/>
      <path id="Path_68" data-name="Path 68" d="M1411.879,168.5,84.315,197.7c-16.152,37.56-26.862,80.028-31.8,124.037h1336.1a471.263,471.263,0,0,0,19.283-79.059C1411.891,216.82,1413.481,191.809,1411.879,168.5ZM322.063,264.233H298.121c6.585,0,11.978,4.883,11.978,10.834S304.706,285.9,298.121,285.9h-138.5c-6.573,0-11.965-4.883-11.965-10.834s5.392-10.834,11.965-10.834h23.955c-6.585,0-11.965-4.871-11.965-10.822s5.38-10.834,11.965-10.834H166.468c-6.585,0-11.977-4.871-11.977-10.822s5.392-10.834,11.977-10.834h138.5c6.585,0,11.965,4.871,11.965,10.834s-5.38,10.822-11.965,10.822h17.1c6.585,0,11.965,4.883,11.965,10.834S328.648,264.233,322.063,264.233Z" transform="translate(-49.374 -14.173)" fill="#6c63ff" opacity="0.1"/>
      <ellipse id="Ellipse_28" data-name="Ellipse 28" cx="555.363" cy="51.091" rx="555.363" ry="51.091" transform="translate(121.889 868.293)" fill="#6c63ff" opacity="0.1"/>
      <path id="Path_69" data-name="Path 69" d="M1103.238,477.68a1.9,1.9,0,0,1,0-.261v-.385h0a10.607,10.607,0,0,0-1.578-3.988,31.423,31.423,0,0,0-11.505-10.884c-8.2-4.5-19.47-6.424-22.75-15.009-1.006-2.659-1.031-5.554-1.528-8.337a25.21,25.21,0,0,0-16.637-18.923c-3.9-1.3-8.114-1.665-11.9-3.28-8.474-3.6-12.947-12.487-16.736-20.7q-7.356-15.9-14.711-31.82c-3.728,1.876-8.548.994-12.04-1.354a24.974,24.974,0,0,1-7.79-9.629c-5.057-9.816-7.231-20.936-13.17-30.279s-17.8-16.724-28.291-12.661a48.279,48.279,0,0,1-6.337,2.622c-8.983,2.1-18.923-8.163-26.614-3.181a8.7,8.7,0,0,0-3.019,3.3,1.469,1.469,0,0,1,0-.249,15.89,15.89,0,0,0-1.64,6.486h0v1.565c0,1.789.112,3.6.137,5.417a24.123,24.123,0,0,1-.348,4.547v-.124a15.324,15.324,0,0,1-.646,2.485c-2,5.367-7.542,8.884-10.139,13.928v-.249a13.113,13.113,0,0,0-.758,1.7,12.675,12.675,0,0,0-.708,4.113c-.224,9.48,9.828,18.4,11,28.577.833,7.206,2.485,9.517,8.61,13.593l1.342.895c-.534,0-1.081.075-1.69.087a4.133,4.133,0,0,0-.708.075,7.579,7.579,0,0,0-6.386,1.118c-4.7,3.727-15.8.857-20.737,0s-21.83,1.454-24.191,10.822-6.411,28.7-6.411,28.7,0,12.263-1.5,14.549a.733.733,0,0,0,0,.5c0,3.442.124,24.129-3.206,29.459-.82,1.242-.758,3.988-.149,7.368-3.5,4.51-6.8,9.778-6.212,13.232,1.068,7.07,15.407,29.3,35.957,17.395,0,0,11.692-21.383-3.019-32.752l.634-2.485c4.448,5.467,7.741,9.393,7.741,9.393s.174.46.447,1.242h-.447a58.4,58.4,0,0,1,3.454,16.252,19.883,19.883,0,0,1-1.093,5.976h.385c-.112.422-.236.845-.385,1.242a10.834,10.834,0,0,1-3.864,5.231c-10.275,7.281-22.042,59.279-22.042,59.279s-23.309,84.054-27.968,88.837c-3.852,3.926,20.352,14.984,38.517,13.667a29.64,29.64,0,0,0,7.455-1.416c.112,1.242.236,2.485.36,3.616.385,3.727.783,7.182,1.031,8.263.646,2.709,1.926,30.366,1.926,30.366s-2.622,17.966-1.988,30.466c0,.857.112,1.677.186,2.485l-2.261.348c-3.429,7.7,10.7,71.977,12.624,77.381a51.465,51.465,0,0,1,2.137,13.108s-1.242,4.572-.211,7.07a17.2,17.2,0,0,1,1.243,4.784s-.845,4.15.435,6.858-.211,7.455-.211,7.455-.422,18.724-4.274,28.912a16.649,16.649,0,0,0,2.671,16.5,10.18,10.18,0,0,0,.87,1.006s21.246.174,24.986,0h.484c1.5-.211,5.355-17.059,1.926-25.173s-.422-18.1-.422-18.1V863.954s3.852-3.553,0-11.182-3.218-9.94-3.218-9.94,4.287-12.276-.211-16.227.857-18.935.857-18.935l1.516-49.948a19.622,19.622,0,0,0-2.423-.621c-.087-.82-.174-1.665-.261-2.56-.882-9.045-1.64-21.346.323-24.85s2.907-34.094,3.218-55.352l19.582.745c.41,9.94.845,19.01,1.118,20.165.646,2.709,1.938,30.366,1.938,30.366s-2.634,17.966-2,30.466c0,.857.112,1.677.186,2.485l-2.261.348c-3.429,7.7,10.7,71.977,12.624,77.381A51.749,51.749,0,0,1,954.7,849.4s-1.242,4.572-.224,7.07a17.2,17.2,0,0,1,1.242,4.784s-.845,4.15.435,6.858-.211,7.455-.211,7.455-.422,18.724-4.274,28.912a16.65,16.65,0,0,0,2.758,16.475,10.219,10.219,0,0,0,.87,1.006s21.246.174,24.986,0h.485c1.5-.211,5.355-17.059,1.926-25.173s-.422-18.1-.422-18.1V863.954s3.852-3.553,0-11.182-3.218-9.94-3.218-9.94,4.287-12.276-.211-16.227.857-18.935.857-18.935l1.541-49.948a19.088,19.088,0,0,0-2.485-.621c-.087-.82-.174-1.665-.261-2.56-.882-9.045-1.64-21.346.323-24.85,1.578-2.87,2.485-21.358,2.9-39.411,0-1.242,0-2.485.1-3.727a192.689,192.689,0,0,0,26.813-3.007s-10.474-37.038-7.268-43.064c1.379-2.6-.609-16.426-3.33-31.323A21.768,21.768,0,0,0,1011.419,614c4.684,9.008,18.935,29.733,26.962,32.926,9.418,3.727,2.348-29.322-2.137-34.106a40.242,40.242,0,0,1-5.318-8.536c.124-.149.261-.273.385-.41s.224-35.162-1.926-34.528-4.709-5.206-4.709-5.206l-6.635-58.235-2.783-24.377h0c2.323,1.715,5.082,2.808,7.455,4.51,6.461,4.734,8.573,13.046,11.406,20.4,2.336,6.051,5.616,12.052,11,15.854s13.27,4.808,18.637.957c4.97-3.616,6.436-10.139,7.53-16.09,9.02,3.168,19.967-5.305,18.8-14.562-.286-2.286-1.131-4.784.062-6.784,2.386-3.951,9.94-1.652,12.425-5.554a4.149,4.149,0,0,0,.621-2.249A1.536,1.536,0,0,0,1103.238,477.68ZM982.581,509.711c-.137,2.224,2.92,20.091,5.4,34.23-2.038-8.809-6.125-18.215-14.177-24.663a11.165,11.165,0,0,0-.1-1.242h.1s-.335-3.553-.385-8.61a94.876,94.876,0,0,1,.994-13.394v-.112h-.162a7.082,7.082,0,0,1,.162-1.131,40.378,40.378,0,0,1,3.019-10.859,30.114,30.114,0,0,1,2.3-3.9c1.329,12.015,2.969,27.434,2.845,29.683Zm6.684,41.4c1.093,6.1,1.876,10.387,1.876,10.387l6.6,45.3v.211c-3.553-19.122-8.089-39.275-8.089-39.275a78.277,78.277,0,0,0-.385-16.624Z" transform="translate(140.038 19.708)" fill="url(#linear-gradient)"/>
      <path id="Path_70" data-name="Path 70" d="M895.9,383.06c-1.242-11.48-13.667-21.383-9.94-32.3,2.025-5.951,8.362-9.592,10.5-15.506,1.417-3.9.783-8.188.8-12.338s.981-8.784,4.436-11.083c7.455-4.97,17.047,5.256,25.744,3.168a45.56,45.56,0,0,0,6.125-2.609c10.151-4.038,21.631,3.317,27.334,12.611s7.84,20.377,12.735,30.143a24.723,24.723,0,0,0,7.529,9.58c3.38,2.336,8,3.218,11.655,1.354l14.226,31.683c3.727,8.163,8,17.01,16.152,20.6,3.653,1.6,7.728,1.963,11.505,3.268a24.849,24.849,0,0,1,16.152,18.824c.484,2.783.5,5.666,1.479,8.312,3.168,8.548,14.065,10.462,22,14.91a30.777,30.777,0,0,1,11.182,10.822c1.242,2.149,2.311,4.97.981,7.082-2.4,3.877-9.691,1.59-12,5.529-1.168,1.988-.348,4.473,0,6.759,1.131,9.207-9.468,17.643-18.19,14.487-1.056,5.927-2.485,12.425-7.281,16.016-5.156,3.852-12.8,2.833-18-.944s-8.362-9.753-10.623-15.78c-2.746-7.331-4.8-15.606-11.046-20.315-2.261-1.69-4.97-2.783-7.182-4.485-4.97-3.8-7.455-10.077-9.232-16.152-2.3-7.579-4.125-15.369-7.455-22.526s-8.6-13.816-15.817-17.084c-6.771-3.044-14.574-2.845-21.569-5.318-12.04-4.249-20.948-14.375-32.926-19.147a53.293,53.293,0,0,1-10.81-6.113C898.331,392.54,896.691,390.242,895.9,383.06Z" transform="translate(152.547 20.247)" fill="#3f3d56"/>
      <g id="Group_22" data-name="Group 22" transform="translate(1037.895 335.095)" opacity="0.1">
        <path id="Path_71" data-name="Path 71" d="M894.72,331.956a12.576,12.576,0,0,0,.671-1.5c1.4-3.9.783-8.188.8-12.338a22.156,22.156,0,0,1,.385-4.125,17.4,17.4,0,0,0-1.627,7.853C894.931,325.185,895.329,328.689,894.72,331.956Z" transform="translate(-883.054 -313.99)"/>
        <path id="Path_72" data-name="Path 72" d="M1050.17,512.976c-5.156,3.839-12.8,2.833-18-.957s-8.374-9.741-10.573-15.792c-2.746-7.331-4.784-15.606-11.046-20.315-2.249-1.69-4.97-2.8-7.169-4.485-4.97-3.8-7.455-10.076-9.244-16.09-2.3-7.579-4.113-15.369-7.455-22.526s-8.586-13.816-15.817-17.084c-6.759-3.044-14.562-2.845-21.557-5.318-12.052-4.249-20.961-14.375-32.926-19.147a53.988,53.988,0,0,1-10.822-6.113c-5.889-4.063-7.455-6.362-8.325-13.531-1.242-10.76-12.176-20.141-10.474-30.279a15.755,15.755,0,0,0-.733,1.69c-3.727,10.934,8.7,20.836,9.94,32.3.808,7.169,2.485,9.468,8.325,13.531a53.99,53.99,0,0,0,10.822,6.113c11.965,4.771,20.874,14.91,32.926,19.147,7,2.485,14.8,2.274,21.557,5.318,7.231,3.268,12.425,9.94,15.817,17.084s5.206,14.91,7.455,22.526c1.826,6.014,4.224,12.288,9.244,16.09,2.249,1.69,4.97,2.8,7.169,4.485,6.212,4.709,8.3,12.984,11.046,20.315,2.261,6.026,5.43,11.99,10.636,15.767s12.847,4.8,18,.957c3.293-2.485,4.97-6.274,6.076-10.337a15.257,15.257,0,0,1-4.87,6.647Z" transform="translate(-885.331 -307.358)"/>
        <path id="Path_73" data-name="Path 73" d="M1038.67,450.411a5.231,5.231,0,0,0-.6,2.907c2.808-2.771,9.145-1.143,11.356-4.709a4.535,4.535,0,0,0,.572-2.92C1047.119,448.424,1040.782,446.8,1038.67,450.411Z" transform="translate(-848.298 -282.056)"/>
        <path id="Path_74" data-name="Path 74" d="M1024.01,468.067c-.236,1.242-.472,2.572-.77,3.864,7.6,2.373,16.388-3.727,17.631-11.431C1037.852,466.427,1030.4,470.39,1024.01,468.067Z" transform="translate(-851.891 -278.464)"/>
      </g>
      <path id="Path_75" data-name="Path 75" d="M909.085,375.091s4.137,8.349-8.076,8.523,7.865,54.222,7.865,54.222l20.3,25.844,25.26-13.667,1.454-37.7,1.864-22.775s-23.607-7.666-19.258-17.8S909.085,375.091,909.085,375.091Z" transform="translate(155.41 34.192)" fill="#fbbebe"/>
      <path id="Path_76" data-name="Path 76" d="M965.75,554.763s14.91,14.674,32.3-4.8L984.7,535.79H967.8Z" transform="translate(172.064 74.887)" fill="#575a89"/>
      <path id="Path_77" data-name="Path 77" d="M967.45,535.79l-2.05,18.973s14.91,14.674,32.3-4.8" transform="translate(171.979 74.887)" opacity="0.1"/>
      <path id="Path_78" data-name="Path 78" d="M990.472,537.87s6,15.742,10.35,20.5,11.182,37.684,2.075,33.957-26.5-31.472-27.546-36.231-1.441-18.227-1.441-18.227Z" transform="translate(174.043 75.391)" fill="#fbbebe"/>
      <path id="Path_79" data-name="Path 79" d="M832.42,564.763l80.339,3.106L903.44,533.9l-40.468-.82Z" transform="translate(201.846 129.259)" fill="#575a89"/>
      <path id="Path_80" data-name="Path 80" d="M841.41,564.763l80.351,3.106L912.443,533.9l-40.48-.82Z" transform="translate(204.026 129.259)" opacity="0.1"/>
      <path id="Path_81" data-name="Path 81" d="M910.924,662.782c-1.9,3.541-1.168,15.792-.311,24.85.547,5.765,1.143,10.2,1.143,10.2s-30.031,9.319-34.578,1.242c-1.156-2.05-1.727-5.641-1.926-9.853-.621-12.425,1.926-30.329,1.926-30.329s-1.242-27.533-1.864-30.229c-.248-1.081-.634-4.51-1.006-8.225-.547-5.517-1.068-11.654-1.068-11.654l41-21.743s0,4.075-.074,10.35C913.944,617.1,913.285,658.433,910.924,662.782Z" transform="translate(149.632 87.314)" fill="#fbbebe"/>
      <path id="Path_82" data-name="Path 82" d="M911.364,678.34s-30.031,9.319-34.578,1.242c-1.156-2.05-1.727-5.641-1.926-9.853,6.212-.944,25.123-3.553,35.361-1.59C910.768,673.9,911.364,678.34,911.364,678.34Z" transform="translate(150.025 106.806)" opacity="0.1"/>
      <path id="Path_83" data-name="Path 83" d="M912.889,834.408h-.472c-3.616.137-24.166,0-24.166,0a11.2,11.2,0,0,1-.845-.994,16.947,16.947,0,0,1-2.671-16.4c3.727-10.151,4.137-28.788,4.137-28.788s1.454-4.759.211-7.455-.422-6.834-.422-6.834a17.707,17.707,0,0,0-1.243-4.759c-1.031-2.485.211-7.045.211-7.045a52.74,52.74,0,0,0-2.075-13.046c-1.864-5.38-15.531-69.368-12.214-77.034,0,0,28.987-4.97,39.97-1.242l-1.454,49.7s-5.181,14.91-.832,18.848.211,16.152.211,16.152-.621,2.274,3.106,9.94,0,11.182,0,11.182v14.7s-2.9,9.94.41,18.016S914.343,834.147,912.889,834.408Z" transform="translate(149.532 107.291)" fill="#3f3d56"/>
      <path id="Path_84" data-name="Path 84" d="M958.214,664.018c-1.9,3.541-1.168,15.792-.311,24.85.547,5.765,1.143,10.2,1.143,10.2s-30.031,9.319-34.578,1.242c-1.156-2.05-1.727-5.641-1.926-9.853-.621-12.425,1.926-30.329,1.926-30.329S923.226,632.6,922.6,629.9c-.335-1.454-.919-15.32-1.379-27.757-.385-10.611-.7-20.2-.7-20.2l41,6.337s0,18.028-.509,36.554C960.575,642.8,959.743,661.21,958.214,664.018Z" transform="translate(161.099 86.077)" fill="#fbbebe"/>
      <path id="Path_85" data-name="Path 85" d="M958.654,678.34s-30.031,9.319-34.578,1.242c-1.156-2.05-1.727-5.641-1.926-9.853,6.212-.944,25.123-3.553,35.361-1.59C958.058,673.9,958.654,678.34,958.654,678.34Z" transform="translate(161.492 106.806)" opacity="0.1"/>
      <path id="Path_86" data-name="Path 86" d="M960.186,834.417h-.472c-3.616.137-24.166,0-24.166,0a11.216,11.216,0,0,1-.845-.994,16.947,16.947,0,0,1-2.671-16.4c3.728-10.2,4.1-28.838,4.1-28.838s1.454-4.759.211-7.455-.422-6.834-.422-6.834a17.7,17.7,0,0,0-1.242-4.759c-1.031-2.485.211-7.045.211-7.045a52.742,52.742,0,0,0-2.075-13.046c-1.864-5.38-15.531-69.368-12.214-77.034,0,0,28.987-4.97,39.97-1.242l-1.454,49.7s-5.181,14.91-.832,18.848.211,16.152.211,16.152-.621,2.274,3.106,9.94,0,11.182,0,11.182v14.7s-2.9,9.94.41,18.016S961.64,834.156,960.186,834.417Z" transform="translate(160.991 107.281)" fill="#3f3d56"/>
      <circle id="Ellipse_29" data-name="Ellipse 29" cx="29.198" cy="29.198" r="29.198" transform="translate(1051.45 360.653)" opacity="0.1"/>
      <circle id="Ellipse_30" data-name="Ellipse 30" cx="29.198" cy="29.198" r="29.198" transform="translate(1051.45 359.411)" fill="#fbbebe"/>
      <path id="Path_87" data-name="Path 87" d="M873.24,608.783l41-21.743s0,4.075-.074,10.35c-5.989,3.578-15.022,8.958-23.707,14.04-4.721,2.771-9.331,5.455-13.282,7.7a17.657,17.657,0,0,1-2.87,1.242C873.762,614.921,873.24,608.783,873.24,608.783Z" transform="translate(149.632 87.314)" opacity="0.1"/>
      <path id="Path_88" data-name="Path 88" d="M961.522,588.237s0,18.028-.509,36.554h-.149a68.953,68.953,0,0,1-9.182-.286c-5.355-.572-9.642-1.988-11.182-4.8-3.119-5.467-11.853-12.425-19.234-17.606-.385-10.611-.7-20.2-.7-20.2Z" transform="translate(161.109 86.068)" opacity="0.1"/>
      <path id="Path_89" data-name="Path 89" d="M973.977,479.556a118.256,118.256,0,0,0-.6,24.39c18.836,15.531,15.32,48.245,15.32,48.245s14.5,66.274,11.394,72.275,7.032,42.866,7.032,42.866a180.786,180.786,0,0,1-26.179,3.007,68.935,68.935,0,0,1-9.182-.286c-5.355-.572-9.642-1.988-11.182-4.8-5.79-10.139-30.851-25.26-30.851-25.26s-15.879,9.517-30.664,18.177c-4.721,2.771-9.331,5.454-13.282,7.7a24.651,24.651,0,0,1-10.375,2.845c-17.581,1.3-41-9.7-37.274-13.605,4.56-4.771,27.136-88.427,27.136-88.427s11.381-51.774,21.321-59.018a10.747,10.747,0,0,0,3.727-5.206c3.4-9.455-2.286-24.613-2.286-24.613s-32.093-39.548-30.652-41.834,1.454-14.487,1.454-14.487,3.939-19.258,6.212-28.577,18.637-11.6,23.4-10.772,15.519,3.727,20.066,0,12.226,1.454,12.226,1.454L939.6,388.83l16.96-9.94s17,.87,18.451,3.143,23.818,6.635,23.818,6.635c11.381,7.654,10.971,44.108,10.971,44.108s-27.334,23.806-32.926,36.032a41.078,41.078,0,0,0-2.895,10.747Z" transform="translate(141.025 36.842)" fill="#575a89"/>
      <path id="Path_90" data-name="Path 90" d="M976.334,418.2l6.212,4.97,6.424,57.775,6.411,57.986s2.485,5.8,4.56,5.181,1.864,34.367,1.864,34.367-23.781-14.624-32.3,4.8l-6.635-46.829s-8.5-47.835-8.287-51.563-4.349-44.108-4.349-44.108Z" transform="translate(168.301 46.374)" fill="#575a89"/>
      <path id="Path_91" data-name="Path 91" d="M858.851,420.37l-4.56,5.591s.422,24.017-3.106,29.819,9.741,39.759,14.711,37.684,16.152-55.079,16.152-55.7S858.851,420.37,858.851,420.37Z" transform="translate(144.142 46.9)" fill="#575a89"/>
      <path id="Path_92" data-name="Path 92" d="M859.549,447.87s-14.5,14.7-13.469,21.743,14.91,29.173,34.789,17.283C880.87,486.9,899.308,452.219,859.549,447.87Z" transform="translate(143.034 53.568)" fill="#575a89"/>
      <path id="Path_93" data-name="Path 93" d="M909.571,802.875c-3.616.137-24.166,0-24.166,0a11.141,11.141,0,0,1-.845-.994C889.816,800.092,901.172,797.408,909.571,802.875Z" transform="translate(152.377 138.861)" opacity="0.1"/>
      <path id="Path_94" data-name="Path 94" d="M956.881,802.875c-3.616.137-24.166,0-24.166,0a11.163,11.163,0,0,1-.845-.994C937.1,800.092,948.457,797.408,956.881,802.875Z" transform="translate(163.849 138.861)" opacity="0.1"/>
      <path id="Path_95" data-name="Path 95" d="M893.2,509.11c-3.168,30.391-2.125,90.7-1.466,117.489-4.721,2.771-9.331,5.454-13.282,7.7a24.651,24.651,0,0,1-10.375,2.845C866.756,629.047,885,545.838,893.2,509.11Z" transform="translate(148.363 68.418)" opacity="0.1"/>
      <path id="Path_96" data-name="Path 96" d="M892.157,495.23c-.087.435-1.59,7.045-3.876,17.246C889.175,503.766,890.417,497.516,892.157,495.23Z" transform="translate(153.279 65.052)" opacity="0.1"/>
      <path id="Path_97" data-name="Path 97" d="M938.739,492.59s17.606,110.581-34.528,124.248C904.2,616.788,940.279,611.309,938.739,492.59Z" transform="translate(157.142 64.412)" opacity="0.1"/>
      <path id="Path_98" data-name="Path 98" d="M957.537,643.023a68.914,68.914,0,0,1-9.182-.286L934.29,491.54C943.261,497.4,954,604.7,957.537,643.023Z" transform="translate(164.436 64.157)" opacity="0.1"/>
      <path id="Path_99" data-name="Path 99" d="M903.518,346.82a7.692,7.692,0,0,1,2.771.286,12.09,12.09,0,0,1,3.5,2.634,12.487,12.487,0,0,0,11.853,2.3,15.632,15.632,0,0,1,4.46-1.242c2.373,0,4.423,1.739,5.653,3.727s1.864,4.349,2.92,6.473,2.746,4.137,5.069,4.659a8.872,8.872,0,0,1,3.231.746,4.573,4.573,0,0,1,1.391,1.926c1.938,4.187,3.479,9.132,7.616,11.182a11.392,11.392,0,0,0,4.858,1.056,10.151,10.151,0,0,0,4.97-.895,9.518,9.518,0,0,0,3.653-3.64c2.584-4.274,2.883-9.567,2.274-14.525a39.958,39.958,0,0,0-6.5-17.469,36.467,36.467,0,0,0-33.361-15.394,46.5,46.5,0,0,0-6.647,1.242c-7.9,2.112-15.655,6.063-20.451,12.686a43.049,43.049,0,0,1-3.815,4.7C899.144,347.056,901.331,346.87,903.518,346.82Z" transform="translate(155.387 24.618)" opacity="0.1"/>
      <path id="Path_100" data-name="Path 100" d="M903.518,345.82a7.691,7.691,0,0,1,2.771.286,12.09,12.09,0,0,1,3.5,2.634,12.487,12.487,0,0,0,11.853,2.3,15.632,15.632,0,0,1,4.46-1.242c2.373,0,4.423,1.739,5.653,3.727s1.864,4.349,2.92,6.473,2.746,4.137,5.069,4.659a8.872,8.872,0,0,1,3.231.745,4.573,4.573,0,0,1,1.391,1.926c1.938,4.187,3.479,9.132,7.616,11.182a11.392,11.392,0,0,0,4.858,1.056,10.151,10.151,0,0,0,4.97-.895,9.517,9.517,0,0,0,3.653-3.64c2.584-4.274,2.883-9.567,2.274-14.525a39.959,39.959,0,0,0-6.5-17.469,36.467,36.467,0,0,0-33.361-15.394,46.5,46.5,0,0,0-6.647,1.242c-7.9,2.112-15.655,6.063-20.451,12.686a43.044,43.044,0,0,1-3.815,4.7C899.144,346.056,901.331,345.87,903.518,345.82Z" transform="translate(155.387 24.375)" fill="#3f3d56"/>
      <path id="Path_101" data-name="Path 101" d="M877.731,398.2s1.454,11.6-3.516,14.5S877.731,398.2,877.731,398.2Z" transform="translate(149.49 41.525)" opacity="0.1"/>
      <path id="Path_102" data-name="Path 102" d="M961.57,473.139s11.8-17.395,13.468-12.425S961.57,473.139,961.57,473.139Z" transform="translate(171.051 56.466)" opacity="0.1"/>
      <path id="Path_103" data-name="Path 103" d="M962.24,477.151s11.642-14.289,12.76-8.7S962.24,477.151,962.24,477.151Z" transform="translate(171.213 58.245)" opacity="0.1"/>
      <path id="Path_104" data-name="Path 104" d="M948.415,462.468a18.9,18.9,0,0,1-11.7-3.852h-1.019a18.389,18.389,0,0,1-12.785,4.808,18.14,18.14,0,0,1-13.257-5.318H908.3a19.519,19.519,0,0,1-25.2-.46l-4.858-.087s5.691,15.158,2.286,24.614l83.035,1.479a118.248,118.248,0,0,1,.6-24.39v-.112l-4.56-.087a19.11,19.11,0,0,1-11.182,3.4Z" transform="translate(150.845 55.918)" opacity="0.1"/>
      <path id="Path_105" data-name="Path 105" d="M948.415,464.468a18.9,18.9,0,0,1-11.7-3.852h-1.019a18.389,18.389,0,0,1-12.785,4.808,18.14,18.14,0,0,1-13.257-5.318H908.3a19.519,19.519,0,0,1-25.2-.46l-4.858-.087s5.691,15.158,2.286,24.614l83.035,1.479a118.247,118.247,0,0,1,.6-24.39v-.112l-4.56-.087a19.11,19.11,0,0,1-11.182,3.4Z" transform="translate(150.845 56.403)" opacity="0.1"/>
      <path id="Path_106" data-name="Path 106" d="M948.415,463.468a18.9,18.9,0,0,1-11.7-3.852h-1.019a18.389,18.389,0,0,1-12.785,4.808,18.14,18.14,0,0,1-13.257-5.318H908.3a19.519,19.519,0,0,1-25.2-.46l-4.858-.087s5.691,15.158,2.286,24.614l83.035,1.479a118.247,118.247,0,0,1,.6-24.39v-.112l-4.56-.087a19.11,19.11,0,0,1-11.182,3.4Z" transform="translate(150.845 56.161)" fill="#3f3d56"/>
      <path id="Path_107" data-name="Path 107" d="M931.75,395.83s17.482,1.118,17.594,3.6S931.75,395.83,931.75,395.83Z" transform="translate(163.82 40.95)" opacity="0.1"/>
      <path id="Path_108" data-name="Path 108" d="M901,387.3s-17.482,1.118-17.594,3.6S901,387.3,901,387.3Z" transform="translate(152.099 38.882)" opacity="0.1"/>
      <path id="Path_109" data-name="Path 109" d="M955.474,428.255c-.174-.124-.348-.224-.522-.335,4.473,4.026,3.727,12.822-1.764,20.078s-13.829,10.275-18.9,7.02c.161.137.3.286.472.422,4.97,3.8,13.667.82,19.408-6.685S960.469,432.07,955.474,428.255Z" transform="translate(164.436 48.731)" opacity="0.1"/>
      <path id="Path_110" data-name="Path 110" d="M874.844,447.258c-4.423-7.977-3.852-16.786,1.156-20.128-.186.087-.385.162-.572.261-5.492,3.057-6.212,12.214-1.665,20.464s12.748,12.425,18.24,9.418a4.775,4.775,0,0,0,.522-.348C887.045,459.41,879.267,455.235,874.844,447.258Z" transform="translate(149.035 48.539)" opacity="0.1"/>
      <path id="Path_111" data-name="Path 111" d="M879.921,389.774h0l-1.6,2.485-4.088-2.174,2.149-3.3a9.008,9.008,0,0,1,3.541,2.994Z" transform="translate(149.873 38.755)" opacity="0.1"/>
      <path id="Path_112" data-name="Path 112" d="M858.7,474.114s3.64-17.121-1.243-22.563-3.317-33.969,4.138-33.348,18.637,23.185,16.773,27.956-8.909,29.2-8.909,29.2Z" transform="translate(145.126 46.372)" fill="#fbbebe"/>
      <path id="Path_113" data-name="Path 113" d="M965.336,369.49a9.518,9.518,0,0,1-3.653,3.64,10.152,10.152,0,0,1-4.97.895,11.394,11.394,0,0,1-4.858-1.056c-4.137-2.062-5.678-7.008-7.616-11.182a4.572,4.572,0,0,0-1.267-1.963,8.872,8.872,0,0,0-3.193-.783c-2.323-.522-4-2.547-5.069-4.659s-1.7-4.448-2.92-6.473-3.28-3.8-5.653-3.727a15.272,15.272,0,0,0-4.461,1.3,12.524,12.524,0,0,1-11.853-2.311,12.089,12.089,0,0,0-3.5-2.634,7.691,7.691,0,0,0-2.771-.286c-1.429,0-2.845.137-4.274.248A31.233,31.233,0,0,1,897,343.162c2.174-.186,4.361-.373,6.548-.422a7.693,7.693,0,0,1,2.771.286,12.088,12.088,0,0,1,3.5,2.634,12.524,12.524,0,0,0,11.853,2.311,15.273,15.273,0,0,1,4.46-1.3c2.373,0,4.423,1.74,5.653,3.727s1.864,4.349,2.92,6.473,2.746,4.137,5.069,4.659a8.872,8.872,0,0,1,3.193.783,4.572,4.572,0,0,1,1.391,1.926c1.938,4.187,3.479,9.132,7.617,11.182a11.393,11.393,0,0,0,4.858,1.056,10.152,10.152,0,0,0,4.97-.895,9.518,9.518,0,0,0,3.653-3.64,20.613,20.613,0,0,0,2.485-11.505,18.986,18.986,0,0,1-2.609,9.058Z" transform="translate(155.394 27.468)" opacity="0.1"/>
      <ellipse id="Ellipse_31" data-name="Ellipse 31" cx="11.182" cy="7.579" rx="11.182" ry="7.579" transform="translate(998.147 518.908)" fill="#575a89"/>
      <circle id="Ellipse_32" data-name="Ellipse 32" cx="383.305" cy="383.305" r="383.305" transform="translate(261.531 181.761)" fill="rgba(255,64,129,0.69)" stroke="#707070" stroke-width="67"/>
      <path id="Path_114" data-name="Path 114" d="M809.35,686.253c0,60.509-95.124,5.169-197.107,5.169S407.11,744.476,407.11,683.967c0-34.5,32.876-82.488,80.04-117.34h0c35.535-26.266,79.171-45.077,123.005-45.077,45.077,0,89.235,20.364,124.459,48.32C779.071,605.119,809.35,652.482,809.35,686.253Z" transform="translate(36.606 71.434)" fill="#444053"/>
      <path id="Path_115" data-name="Path 115" d="M718.982,569.85c-54.209-8.163-152.253-18.115-247.452-3.243,35.535-26.266,79.171-45.077,123.005-45.077C639.6,521.53,683.758,541.894,718.982,569.85Z" transform="translate(52.226 71.429)" fill="#f6f8fb"/>
      <path id="Path_116" data-name="Path 116" d="M429.46,281.31S314,355.126,314.941,470.589,429.46,281.31,429.46,281.31Z" transform="translate(14.256 13.181)" opacity="0.05"/>
      <path id="Path_117" data-name="Path 117" d="M895.566,113.546s-104.617-6.3-92.279,67.007c0,0-2.485,12.947,9.294,18.836,0,0,.186-5.43,10.723-3.591a48.457,48.457,0,0,0,11.369.547,23.607,23.607,0,0,0,13.891-5.74h0s29.409-12.139,40.853-60.211c0,0,8.461-10.487,8.126-13.17l-17.656,7.529s6.026,12.735,1.242,23.321c0,0-.572-22.849-3.964-22.365-.683.112-9.169,4.411-9.169,4.411s10.375,22.191,2.485,38.306c0,0,2.97-27.335-5.79-36.7l-12.425,7.256s12.127,22.911,3.9,41.611c0,0,2.112-28.676-6.511-39.846l-11.269,8.784s11.394,22.588,4.448,38.094c0,0-.907-33.385-6.883-35.908,0,0-9.853,8.7-11.356,12.263,0,0,7.8,16.388,2.969,25.036,0,0-2.969-22.24-5.4-22.365,0,0-9.816,14.736-10.847,24.85,0,0,.435-15.034,8.461-26.254,0,0-9.493,1.628-15.022,7.79,0,0,1.528-10.424,17.395-11.331,0,0,8.113-11.182,10.288-11.853,0,0-15.842-1.329-25.446,2.932,0,0,8.449-9.828,28.341-5.368l11.182-9.07s-20.849-2.858-29.7.3c0,0,10.176-8.7,32.69-2.361l12.114-7.244s-17.78-3.827-28.378-2.485c0,0,11.182-6.026,31.919.509l8.7-3.889s-13.034-2.559-16.848-2.957S853,118.753,853,118.753a45.163,45.163,0,0,1,24.514,2.845S895.877,114.7,895.566,113.546Z" transform="translate(132.425 -27.531)" fill="#00c22d"/>
      <path id="Path_118" data-name="Path 118" d="M799.225,87.3s-47.214-2.858-41.7,30.267c0,0-1.106,5.852,4.2,8.511,0,0,.075-2.485,4.846-1.615a22.438,22.438,0,0,0,5.131.248,10.8,10.8,0,0,0,6.287-2.6h0s13.282-5.492,18.451-27.21c0,0,3.827-4.734,3.727-5.951l-7.977,3.4s2.733,5.753.584,10.536c0,0-.261-10.325-1.789-10.076-.311,0-4.15,1.988-4.15,1.988s4.7,10.027,1.156,17.308c0,0,1.342-12.35-2.609-16.587l-5.616,3.28s5.479,10.362,1.764,18.811c0,0,.944-12.959-2.945-18l-5.094,3.964s5.144,10.2,2.013,17.208c0,0-.41-15.084-3.119-16.227,0,0-4.448,3.926-5.131,5.541,0,0,3.529,7.455,1.342,11.319,0,0-1.342-10.052-2.485-10.089,0,0-4.436,6.647-4.9,11.182a24.2,24.2,0,0,1,3.814-11.866,13.307,13.307,0,0,0-6.784,3.516s.683-4.709,7.877-5.119c0,0,3.665-5.044,4.647-5.355,0,0-7.157-.6-11.493,1.329,0,0,3.814-4.448,12.81-2.485l4.97-4.088s-9.418-1.242-13.419.124c0,0,4.6-3.926,14.773-1.056l5.467-3.28s-8.026-1.727-12.822-1.106c0,0,5.057-2.721,14.425.236L789.4,91.6s-5.889-1.156-7.6-1.329-1.826-.659-1.826-.659a20.364,20.364,0,0,1,11.058,1.242S799.362,87.824,799.225,87.3Z" transform="translate(121.466 -33.877)" fill="#00c22d"/>
      <ellipse id="Ellipse_33" data-name="Ellipse 33" cx="33.46" cy="5.653" rx="33.46" ry="5.653" transform="translate(1299.834 895.714)" fill="#6c63ff" opacity="0.1"/>
      <ellipse id="Ellipse_34" data-name="Ellipse 34" cx="33.46" cy="5.653" rx="33.46" ry="5.653" transform="translate(24.653 989.757)" fill="#6c63ff" opacity="0.1"/>
      <ellipse id="Ellipse_35" data-name="Ellipse 35" cx="33.46" cy="5.653" rx="33.46" ry="5.653" transform="translate(218.89 996.852)" fill="#6c63ff" opacity="0.1"/>
      <path id="Path_119" data-name="Path 119" d="M1089.776,811.894a14.574,14.574,0,0,0,4.771-7.194c.609-2.845-.609-6.274-3.33-7.318-3.056-1.168-6.324.957-8.8,3.094s-5.318,4.572-8.561,4.125a13.009,13.009,0,0,0,4.026-12.189,5.119,5.119,0,0,0-1.118-2.485c-1.7-1.814-4.771-1.044-6.809.385-6.461,4.547-8.262,13.319-8.3,21.222-.646-2.845-.1-5.815-.112-8.7s-.82-6.212-3.28-7.741a9.939,9.939,0,0,0-4.97-1.168c-2.907-.112-6.138.174-8.126,2.3-2.485,2.646-1.826,7.07.323,9.94s5.4,4.734,8.4,6.734a18.637,18.637,0,0,1,6.014,5.728,6,6,0,0,1,.447,1.031h18.2a50.654,50.654,0,0,0,11.22-7.766Z" transform="translate(190.935 136.253)" fill="#00c22d"/>
      <path id="Path_120" data-name="Path 120" d="M113,723.55s6.821,8.921-3.156,22.365-18.2,24.85-14.91,33.249c0,0,15.046-25.024,27.335-25.384S126.468,738.6,113,723.55Z" transform="translate(-39.269 120.415)" fill="#6c63ff"/>
      <path id="Path_121" data-name="Path 121" d="M112.921,723.55a11.184,11.184,0,0,1,1.392,2.8c11.953,14.04,18.314,27.148,6.834,27.471-10.71.311-23.607,19.445-26.626,24.278a11.554,11.554,0,0,0,.373,1.106s15.046-25.024,27.335-25.384S126.39,738.6,112.921,723.55Z" transform="translate(-39.19 120.415)" opacity="0.1"/>
      <path id="Path_122" data-name="Path 122" d="M119.848,733.1c0,3.144-.36,5.691-.8,5.691s-.783-2.485-.783-5.691.435-1.665.882-1.665S119.848,729.954,119.848,733.1Z" transform="translate(-33.431 122.236)" fill="#ffd037"/>
      <path id="Path_123" data-name="Path 123" d="M124.05,736.139c-2.758,1.5-5.156,2.41-5.368,2.025s1.864-1.9,4.622-3.4,1.665-.41,1.876,0S126.858,734.636,124.05,736.139Z" transform="translate(-33.335 122.947)" fill="#ffd037"/>
      <path id="Path_124" data-name="Path 124" d="M83.3,723.55s-6.821,8.921,3.143,22.365,18.2,24.85,14.91,33.249c0,0-15.059-25.024-27.335-25.384S69.822,738.6,83.3,723.55Z" transform="translate(-45.628 120.415)" fill="#6c63ff"/>
      <path id="Path_125" data-name="Path 125" d="M83.306,723.55a10.722,10.722,0,0,0-1.392,2.8c-11.953,14.04-18.327,27.148-6.834,27.471,10.7.311,23.607,19.445,26.614,24.278a11.486,11.486,0,0,1-.36,1.106S86.275,754.177,74,753.817,69.825,738.6,83.306,723.55Z" transform="translate(-45.632 120.415)" opacity="0.1"/>
      <path id="Path_126" data-name="Path 126" d="M70.1,733.1c0,3.144.348,5.691.783,5.691s.783-2.485.783-5.691-.435-1.665-.87-1.665S70.1,729.954,70.1,733.1Z" transform="translate(-45.112 122.236)" fill="#ffd037"/>
      <path id="Path_127" data-name="Path 127" d="M66.916,736.139c2.758,1.5,5.169,2.41,5.38,2.025s-1.864-1.9-4.622-3.4-1.677-.41-1.876,0S64.158,734.636,66.916,736.139Z" transform="translate(-46.289 122.947)" fill="#ffd037"/>
      <path id="Path_128" data-name="Path 128" d="M71.85,769.416s19.084-.584,24.85-4.684,29.36-8.983,30.789-2.485,28.676,32.677,7.132,32.851-50.059-3.367-55.8-6.859S71.85,769.416,71.85,769.416Z" transform="translate(-44.687 129.031)" fill="#a8a8a8"/>
      <path id="Path_129" data-name="Path 129" d="M134.98,790.863c-21.545.174-50.059-3.367-55.8-6.858-4.374-2.659-6.113-12.214-6.7-16.624H71.85s1.242,15.394,6.945,18.886,34.255,7.032,55.8,6.859c6.212,0,8.362-2.274,8.25-5.542C141.975,789.583,139.615,790.826,134.98,790.863Z" transform="translate(-44.687 131.043)" opacity="0.2"/>
      <path id="Path_130" data-name="Path 130" d="M476.792,463.3c7.293-.41,41.623-2.994,63.429-15.432a24.712,24.712,0,0,1,11.518-3.392c6.933-.2,14.91,2.7,9.8,18.9-8.275,26.5-56.322,56.322-86.141,54.669-28.676-1.59-62.7-13.145-85.159-53.774a24.85,24.85,0,0,1-3.069-12.785c.261-8.2,3.243-18.476,18.637-7.02,20.8,15.469,60.26,18.4,68.175,18.836a26.214,26.214,0,0,0,2.808,0Z" transform="translate(31.769 51.506)" fill="#444053"/>
      <path id="Path_131" data-name="Path 131" d="M698.792,463.3c7.293-.41,41.623-2.994,63.429-15.432a24.712,24.712,0,0,1,11.518-3.392c6.933-.2,14.91,2.7,9.8,18.9-8.275,26.5-56.322,56.322-86.141,54.669-28.676-1.59-62.7-13.145-85.159-53.774a24.849,24.849,0,0,1-3.069-12.785c.261-8.2,3.243-18.476,18.637-7.02,20.8,15.469,60.26,18.4,68.175,18.836a26.212,26.212,0,0,0,2.808,0Z" transform="translate(85.599 51.506)" fill="#444053"/>
    </g>
    <g id="Group_24" data-name="Group 24">
      <text id="Oops_couldn_t_find_anything_here" data-name="Oops! couldn&apos;t find anything here" transform="translate(338 1307)" fill="#707070" font-size="91" font-family="Work Sans"><tspan x="0" y="0">Oops! couldn&apos;t find anything here</tspan></text>
      <text id="_4_4" data-name="4   4" transform="translate(30 1024)" fill="#707070" font-size="1000" font-family="Work Sans"><tspan x="0" y="0" xml:space="preserve">4   4</tspan></text>
    </g>
  </g>
</svg>
