<svg xmlns="http://www.w3.org/2000/svg" xmlns:xlink="http://www.w3.org/1999/xlink" width="172" height="185" viewBox="0 0 172 185">
  <defs>
    <clipPath id="clip-entrepreneure">
      <rect width="172" height="185"/>
    </clipPath>
  </defs>
  <g id="entrepreneure" clip-path="url(#clip-entrepreneure)">
    <g id="Group_18" data-name="Group 18" transform="translate(-45)">
      <path id="Icon_material-lightbulb-outline" data-name="Icon material-lightbulb-outline" d="M16.371,45.138a2.224,2.224,0,0,0,2.218,2.218H27.46a2.224,2.224,0,0,0,2.218-2.218V42.921H16.371ZM23.025,3a15.518,15.518,0,0,0-8.871,28.255v5.012a2.224,2.224,0,0,0,2.218,2.218H29.678A2.224,2.224,0,0,0,31.9,36.267V31.255A15.518,15.518,0,0,0,23.025,3Zm6.321,24.618L27.46,28.948v5.1H18.589v-5.1L16.7,27.618a11.089,11.089,0,1,1,12.642,0Z" transform="translate(107.5 67)" fill="#b1b1b1"/>
      <g id="Icon_feather-dollar-sign" data-name="Icon feather-dollar-sign" transform="translate(117.754 77.178)">
        <path id="Path_239" data-name="Path 239" d="M18,1.5V18" transform="translate(-4.5)" fill="none" stroke="#b1b1b1" stroke-linecap="round" stroke-linejoin="round" stroke-width="3"/>
        <path id="Path_240" data-name="Path 240" d="M17.25,7.5H11.625a2.625,2.625,0,0,0,0,5.25h3.75a2.625,2.625,0,1,1,0,5.25H9" transform="translate(0 -3)" fill="none" stroke="#b1b1b1" stroke-linecap="round" stroke-linejoin="round" stroke-width="3"/>
      </g>
    </g>
  </g>
</svg>
